<svg xmlns="http://www.w3.org/2000/svg" width="1200" height="450" viewBox="0 0 1200 450" role="img" aria-label="Cascade PID"><rect width="100%" height="100%" fill="#ffffff"/><style>text{font-family:Inter,Arial,"Noto Sans CJK SC",sans-serif;fill:#172033}.t{font-size:30px;font-weight:700}.s{font-size:20px;font-weight:650}.b{font-size:17px}.m{font-size:15px;fill:#5f6b7a}.box{fill:#f4f7fb;stroke:#8aa0b5;stroke-width:2}.accent{fill:#dce8f5;stroke:#8aa0b5;stroke-width:2}.accent2{fill:#e8f1e8;stroke:#8aa0b5;stroke-width:2}.warn{fill:#f7eee1;stroke:#8aa0b5;stroke-width:2}.line{stroke:#8aa0b5;stroke-width:3;fill:none}.arrow{stroke:#8aa0b5;stroke-width:3;fill:none;marker-end:url(#a)}.dash{stroke:#8aa0b5;stroke-width:2;stroke-dasharray:8 7;fill:none}</style><defs><marker id="a" markerWidth="10" markerHeight="10" refX="9" refY="3" orient="auto"><path d="M0,0 L0,6 L9,3 z" fill="#8aa0b5"/></marker></defs><text x="60" y="58" class="t">Cascade PID</text><rect x="50" y="135" rx="14" ry="14" width="190" height="100" class="accent"/><text x="145.0" y="175" text-anchor="middle" class="s">期望位置</text><text x="145.0" y="205" text-anchor="middle" class="m">position ref</text><path d="M 240 185 L 300 185" class="arrow"/><rect x="300" y="135" rx="14" ry="14" width="220" height="100" class="box"/><text x="410.0" y="175" text-anchor="middle" class="s">位置环 PID</text><text x="410.0" y="205" text-anchor="middle" class="m">输出期望速度</text><path d="M 520 185 L 580 185" class="arrow"/><rect x="580" y="135" rx="14" ry="14" width="220" height="100" class="accent2"/><text x="690.0" y="175" text-anchor="middle" class="s">速度环 PID</text><text x="690.0" y="205" text-anchor="middle" class="m">输出电机命令</text><path d="M 800 185 L 860 185" class="arrow"/><rect x="860" y="135" rx="14" ry="14" width="240" height="100" class="accent"/><text x="980.0" y="175" text-anchor="middle" class="s">电机 / 机械系统</text><text x="980.0" y="205" text-anchor="middle" class="m">实际位置与速度</text><path d="M 980 235 L 980 315 L 410 315 L 410 241" class="arrow"/><text x="700" y="344" text-anchor="middle" class="m">位置反馈 → 外环</text><path d="M 1040 235 L 1040 380 L 690 380 L 690 241" class="arrow"/><text x="865" y="405" text-anchor="middle" class="m">速度反馈 → 内环（更快）</text></svg>
