<svg xmlns="http://www.w3.org/2000/svg" width="1200" height="430" viewBox="0 0 1200 430" role="img" aria-label="Multi-agent systems: organization before algorithms">
<rect width="100%" height="100%" fill="#ffffff"/>
<style>text{font-family:Inter,Arial,sans-serif;fill:#172033}.t{font-size:30px;font-weight:700}.s{font-size:20px;font-weight:600}.b{font-size:17px}.m{font-size:15px;fill:#5f6b7a}.box{fill:#f4f7fb;stroke:#8aa0b5;stroke-width:2}.accent{fill:#dce8f5;stroke:#8aa0b5;stroke-width:2}.accent2{fill:#e8f1e8;stroke:#8aa0b5;stroke-width:2}.warn{fill:#f7eee1;stroke:#8aa0b5;stroke-width:2}.arrow{stroke:#8aa0b5;stroke-width:3;fill:none;marker-end:url(#a)} </style>
<defs><marker id="a" markerWidth="10" markerHeight="10" refX="9" refY="3" orient="auto"><path d="M0,0 L0,6 L9,3 z" fill="#8aa0b5"/></marker></defs>
<text x="60" y="58" class="t">Multi-agent systems: organization before algorithms</text>
<rect x="60.0" y="130" rx="16" ry="16" width="156.66666666666666" height="150" class="accent"/>
<text x="138.33333333333331" y="168" text-anchor="middle" class="s">Agents</text>
<text x="138.33333333333331" y="198" text-anchor="middle" class="m">architectures</text>
<path d="M 216.66666666666666 205.0 L 238.66666666666666 205.0" class="arrow"/>
<rect x="244.66666666666666" y="130" rx="16" ry="16" width="156.66666666666666" height="150" class="box"/>
<text x="323.0" y="168" text-anchor="middle" class="s">Coordination</text>
<text x="323.0" y="198" text-anchor="middle" class="m">joint behavior</text>
<path d="M 401.3333333333333 205.0 L 423.3333333333333 205.0" class="arrow"/>
<rect x="429.3333333333333" y="130" rx="16" ry="16" width="156.66666666666666" height="150" class="accent"/>
<text x="507.66666666666663" y="168" text-anchor="middle" class="s">Communication</text>
<text x="507.66666666666663" y="198" text-anchor="middle" class="m">information</text>
<path d="M 586.0 205.0 L 608.0 205.0" class="arrow"/>
<rect x="614.0" y="130" rx="16" ry="16" width="156.66666666666666" height="150" class="box"/>
<text x="692.3333333333334" y="168" text-anchor="middle" class="s">Allocation</text>
<text x="692.3333333333334" y="198" text-anchor="middle" class="m">who does what</text>
<path d="M 770.6666666666666 205.0 L 792.6666666666666 205.0" class="arrow"/>
<rect x="798.6666666666666" y="130" rx="16" ry="16" width="156.66666666666666" height="150" class="accent"/>
<text x="877.0" y="168" text-anchor="middle" class="s">Distributed</text>
<text x="877.0" y="198" text-anchor="middle" class="m">local decisions</text>
<path d="M 955.3333333333333 205.0 L 977.3333333333333 205.0" class="arrow"/>
<rect x="983.3333333333333" y="130" rx="16" ry="16" width="156.66666666666666" height="150" class="box"/>
<text x="1061.6666666666665" y="168" text-anchor="middle" class="s">Learning</text>
<text x="1061.6666666666665" y="198" text-anchor="middle" class="m">MARL / CTDE</text></svg>